<svg xmlns="http://www.w3.org/2000/svg" xmlns:xlink="http://www.w3.org/1999/xlink" stroke-miterlimit="10" stroke-linecap="square" stroke="none" fill="none" viewBox="0 0 668.4364454443195 168.48" version="1.1" style="max-height: 500px" width="668.4364454443195" height="168.48"><clipPath id="g36d98842f95_0_4.0"><path clip-rule="nonzero" d="m0 0l960.0 0l0 540.0l-960.0 0l0 -540.0z"/></clipPath><g clip-path="url(#g36d98842f95_0_4.0)"><path fill-rule="evenodd" d="m0 0l960.0 0l0 540.0l-960.0 0z" fill="#ffffff"/><path fill-rule="evenodd" d="m-8.0 -32.0l847.33856 0l0 213.32283l-847.33856 0z" fill-opacity="0.0" fill="#000000"/><path fill-rule="nonzero" d="m0.765625 130.59999l43.984375 -114.53125l16.328125 0l46.875 114.53125l-17.265625 0l-13.359375 -34.6875l-47.890625 0l-12.578125 34.6875l-16.09375 0zm33.046875 -47.03125l38.828125 0l-11.953125 -31.71875q-5.46875 -14.453125 -8.125 -23.75q-2.1875 11.015625 -6.171875 21.875l-12.578125 33.59375zm84.53125 -51.328125l0 -16.171875l14.0625 0l0 16.171875l-14.0625 0zm0 98.359375l0 -82.96875l14.0625 0l0 82.96875l-14.0625 0zm168.82812 0l0 -114.53125l14.0625 0l0 41.09375q9.84375 -11.40625 24.84375 -11.40625q9.21875 0 16.015625 3.640625q6.796875 3.625 9.71875 10.03125q2.9375 6.40625 2.9375 18.59375l0 52.578125l-14.0625 0l0 -52.578125q0 -10.546875 -4.578125 -15.34375q-4.5625 -4.8125 -12.921875 -4.8125q-6.25 0 -11.765625 3.25q-5.5 3.234375 -7.84375 8.78125q-2.34375 5.546875 -2.34375 15.3125l0 45.390625l-14.0625 0zm145.78125 -26.71875l14.53125 1.796875q-3.4375 12.734375 -12.734375 19.765625q-9.296875 7.03125 -23.75 7.03125q-18.203125 0 -28.875 -11.203125q-10.65625 -11.21875 -10.65625 -31.453125q0 -20.9375 10.78125 -32.5q10.78125 -11.5625 27.96875 -11.5625q16.640625 0 27.1875 11.328125q10.546875 11.328125 10.546875 31.875q0 1.25 -0.078125 3.75l-61.875 0q0.78125 13.671875 7.734375 20.9375q6.953125 7.265625 17.34375 7.265625q7.734375 0 13.203125 -4.0625q5.46875 -4.0625 8.671875 -12.96875zm-46.171875 -22.734375l46.328125 0q-0.9375 -10.46875 -5.3125 -15.703125q-6.71875 -8.125 -17.421875 -8.125q-9.6875 0 -16.296875 6.484375q-6.59375 6.484375 -7.296875 17.34375zm78.359375 49.453125l0 -82.96875l12.578125 0l0 11.640625q3.90625 -6.09375 10.390625 -9.796875q6.484375 -3.71875 14.765625 -3.71875q9.21875 0 15.109375 3.828125q5.90625 3.828125 8.328125 10.703125q9.84375 -14.53125 25.625 -14.53125q12.34375 0 18.984375 6.84375q6.640625 6.828125 6.640625 21.046875l0 56.953125l-13.984375 0l0 -52.265625q0 -8.4375 -1.375 -12.140625q-1.359375 -3.71875 -4.953125 -5.984375q-3.59375 -2.265625 -8.4375 -2.265625q-8.75 0 -14.53125 5.828125q-5.78125 5.8125 -5.78125 18.625l0 48.203125l-14.0625 0l0 -53.90625q0 -9.375 -3.4375 -14.0625q-3.4375 -4.6875 -11.25 -4.6875q-5.9375 0 -10.984375 3.125q-5.03125 3.125 -7.296875 9.140625q-2.265625 6.015625 -2.265625 17.34375l0 43.046875l-14.0625 0zm132.65625 31.953125l-1.5625 -13.203125q4.609375 1.25 8.046875 1.25q4.6875 0 7.5 -1.5625q2.8125 -1.5625 4.609375 -4.375q1.328125 -2.109375 4.296875 -10.46875q0.390625 -1.171875 1.25 -3.4375l-31.484375 -83.125l15.15625 0l17.265625 48.046875q3.359375 9.140625 6.015625 19.21875q2.421875 -9.6875 5.78125 -18.90625l17.734375 -48.359375l14.0625 0l-31.5625 84.375q-5.078125 13.671875 -7.890625 18.828125q-3.75 6.953125 -8.59375 10.1875q-4.84375 3.25 -11.5625 3.25q-4.0625 0 -9.0625 -1.71875z" fill="#595959"/><path fill-rule="evenodd" d="m155.38612 42.011795l58.68106 -33.92045l54.858322 31.651966l0.0039367676 67.78029l-58.68106 33.92044l-54.858337 -31.651962z" fill-opacity="0.0" fill="#000000"/><path fill-rule="evenodd" d="m155.38612 42.011795l58.68106 -33.92045l54.858322 31.651966l0.0039367676 67.78029l-58.68106 33.92044l-54.858337 -31.651962z" stroke-linecap="butt" stroke-linejoin="round" stroke-width="8.0" stroke="#595959"/><path fill-rule="evenodd" d="m152.58792 -7.642433l132.97638 0l0 164.81891l-132.97638 0z" fill-opacity="0.0" fill="#000000"/><path fill-rule="nonzero" d="m211.74417 117.27631q-9.46875 0 -17.515625 -3.171875q-8.046875 -3.1875 -13.921875 -8.9375q-5.875 -5.765625 -9.1875 -13.5625q-3.296875 -7.8125 -3.296875 -17.046875q0 -9.234375 3.296875 -17.03125q3.3125 -7.8125 9.25 -13.5625q5.9375 -5.765625 13.96875 -8.9375q8.046875 -3.1875 17.53125 -3.1875q9.125 0 17.15625 3.0625q8.046875 3.0625 13.5625 9.171875l-5.640625 5.640625q-5.15625 -5.28125 -11.40625 -7.609375q-6.234375 -2.34375 -13.4375 -2.34375q-7.5625 0 -14.046875 2.578125q-6.46875 2.578125 -11.265625 7.328125q-4.796875 4.734375 -7.5 11.03125q-2.703125 6.296875 -2.703125 13.859375q0 7.5625 2.703125 13.859375q2.703125 6.296875 7.5 11.046875q4.796875 4.734375 11.265625 7.3125q6.484375 2.578125 14.046875 2.578125q7.203125 0 13.4375 -2.390625q6.25 -2.40625 11.40625 -7.6875l5.640625 5.640625q-5.515625 6.125 -13.5625 9.25q-8.03125 3.109375 -17.28125 3.109375z" fill="#595959"/></g></svg>